<svg xmlns="http://www.w3.org/2000/svg" viewBox="0 0 128 128" fill="none" role="img" aria-label="BestBet Simulated League">
  <defs>
    <linearGradient id="slGold" x1="0%" y1="0%" x2="100%" y2="100%">
      <stop offset="0%" stop-color="#F5D547"/>
      <stop offset="50%" stop-color="#D4AF37"/>
      <stop offset="100%" stop-color="#B8860B"/>
    </linearGradient>
    <linearGradient id="slShield" x1="64" y1="8" x2="64" y2="120">
      <stop offset="0%" stop-color="#1a1a1a"/>
      <stop offset="100%" stop-color="#0a0a0a"/>
    </linearGradient>
    <filter id="slGlow" x="-30%" y="-30%" width="160%" height="160%">
      <feGaussianBlur stdDeviation="2.5" result="blur"/>
      <feMerge>
        <feMergeNode in="blur"/>
        <feMergeNode in="SourceGraphic"/>
      </feMerge>
    </filter>
  </defs>
  <circle cx="64" cy="64" r="58" fill="#D4AF37" opacity="0.12" filter="url(#slGlow)"/>
  <path d="M64 10 L108 28 V68 C108 92 88 110 64 118 C40 110 20 92 20 68 V28 Z" fill="url(#slShield)" stroke="url(#slGold)" stroke-width="3.5" filter="url(#slGlow)"/>
  <path d="M64 22 L96 36 V66 C96 84 82 96 64 102 C46 96 32 84 32 66 V36 Z" fill="none" stroke="#FFFFFF" stroke-opacity="0.15" stroke-width="1.5"/>
  <circle cx="64" cy="46" r="14" fill="none" stroke="url(#slGold)" stroke-width="2"/>
  <path d="M50 46 C50 38 56 32 64 32 C72 32 78 38 78 46" fill="none" stroke="url(#slGold)" stroke-width="2" stroke-linecap="round"/>
  <path d="M50 46 L50 52 C50 58 56 62 64 62 C72 62 78 58 78 52 L78 46" fill="none" stroke="url(#slGold)" stroke-width="2"/>
  <path d="M46 52 L42 56 M82 52 L86 56" stroke="url(#slGold)" stroke-width="1.5" stroke-linecap="round"/>
  <path d="M52 78 L58 72 L64 76 L70 72 L76 78 L72 86 L56 86 Z" fill="url(#slGold)" stroke="#FFFFFF" stroke-width="1" stroke-opacity="0.4"/>
  <text x="64" y="108" text-anchor="middle" font-family="Arial Black, Arial, sans-serif" font-size="22" font-weight="900" fill="url(#slGold)" letter-spacing="2">SL</text>
</svg>
